<svg width="330" height="132" viewBox="0 0 330 132" fill="none" xmlns="http://www.w3.org/2000/svg">
<path d="M105.15 31.9568C96.3326 31.2291 102.775 39.5623 105.15 51.8946C107.365 63.3925 100.547 77.6075 101.5 81.3946C101.619 81.8682 109.67 67.2817 112.837 54.9271C114.793 47.293 113.004 32.6051 105.15 31.9568Z" fill="url(#paint0_linear_2_270)"/>
<path d="M85 95.8946C77.5 87.3946 65.5759 85.8661 65.5 81.3946C65.3891 74.8621 79.8825 80.1815 87.5 85.8946C97.5 93.3946 98.8144 115.609 96 112.395C93.4913 109.53 90.7224 102.38 85 95.8946Z" fill="url(#paint1_linear_2_270)"/>
<path d="M44.8689 27.7326C35.7092 34.2508 36.1784 48.035 31.7094 48.2017C25.1805 48.4453 29.7194 31.6763 35.5099 24.1174C42.3156 15.2331 65.8504 12.1687 62.6943 15.0478C59.8811 17.6141 51.9158 22.7179 44.8689 27.7326Z" fill="url(#paint2_linear_2_270)"/>
<path d="M38.1406 87.2165C43.1233 89.6697 49.4921 88.5954 51.9108 88.0468C52.3174 87.9545 52.6644 88.3585 52.4852 88.735C51.662 90.4649 49.6671 94.1022 46.9119 95.4363C42.1118 97.7605 35.9595 96.1744 35.9595 96.1744C35.9595 96.1744 30.1348 94.4212 25.8562 89.528C24.1318 87.5559 22.7316 84.4076 24.4693 82.1574C27.2756 78.5232 31.8605 84.1245 38.1406 87.2165Z" fill="url(#paint3_linear_2_270)"/>
<path d="M41.3388 56.9725C36.8388 42.4725 45.3388 21.9725 71.8388 23.4725C96.3388 26.4725 102.922 45.647 100.839 66.4725C99.9864 74.9928 97.0758 82.2058 92.6413 88.4534C91.7863 87.2944 90.8699 86.273 89.8915 85.4318C86.9002 82.86 82.7074 80.4372 78.4087 78.6324C85.1879 63.59 83.8994 45.9691 63.8388 50.4725C62.6773 50.7333 62.7556 53.349 62.8489 56.4681C62.9293 59.1575 63.021 62.2213 62.3388 64.4725C59.2064 74.8097 52.8388 83.4725 38.8388 80.9725C28.44 74.3173 32.9206 68.7002 34.7207 66.9998C34.9924 66.7432 35.4202 66.908 35.522 67.2675C35.9853 68.9029 37.4559 72.3023 41.3388 69.9725C45.3566 67.5618 43.8889 63.762 42.3765 59.8463C42.0068 58.8891 41.6344 57.925 41.3388 56.9725Z" fill="url(#paint4_linear_2_270)"/>
<path d="M71.7665 89.2867C58.8799 104.306 29.2011 113.484 18.3804 116.432C17.8095 116.587 17.9074 117.444 18.4989 117.432C29.0496 117.203 56.9938 115.802 70.8388 107.473C75.6857 104.557 80.1491 101.399 84.0751 97.9029C80.6933 94.3528 76.0605 91.65 71.7665 89.2867Z" fill="url(#paint5_linear_2_270)"/>
<path d="M190.313 52.537C190.313 54.8674 189.781 57.0765 188.716 59.1641C187.7 61.2033 186.273 63.0482 184.435 64.6989C182.597 66.3011 180.444 67.6605 177.977 68.7772C175.509 69.8938 172.824 70.6464 169.922 71.0348C170.648 73.2196 171.518 75.4772 172.534 77.8076C173.599 80.0895 174.735 82.2985 175.945 84.4348C177.154 86.571 178.412 88.5373 179.718 90.3337C181.024 92.1301 182.306 93.6109 183.564 94.7761C183.322 95.2616 182.959 95.7471 182.476 96.2326C182.04 96.7181 181.508 97.1551 180.879 97.5435C180.299 97.9804 179.67 98.3203 178.993 98.563C178.364 98.8543 177.759 99 177.178 99C176.114 99 175.098 98.4902 174.131 97.4706C173.163 96.4511 172.171 94.8489 171.155 92.6641C170.188 90.4308 169.148 87.5663 168.035 84.0706C166.971 80.5264 165.786 76.2783 164.479 71.3261C163.947 71.3261 163.415 71.3261 162.883 71.3261C162.351 71.3261 161.94 71.2775 161.649 71.1804C161.311 70.9862 160.948 70.6464 160.561 70.1609C159.255 72.9768 158.094 75.6228 157.078 78.0989C156.062 80.575 155.143 82.9783 154.32 85.3087C153.546 87.5906 152.845 89.8239 152.216 92.0087C151.635 94.1449 151.127 96.3297 150.692 98.563C149.047 98.1746 147.62 97.4706 146.411 96.4511C145.201 95.4315 144.064 93.9993 143 92.1543C143.194 91.7174 143.387 91.3047 143.581 90.9163C143.822 90.4793 144.113 89.8967 144.451 89.1685C144.79 88.3917 145.201 87.4207 145.685 86.2554C146.217 85.0902 146.894 83.5366 147.717 81.5946C148.588 79.6525 149.603 77.2736 150.765 74.4576C151.974 71.6417 153.425 68.2188 155.118 64.1891C155.892 62.3928 156.546 60.8149 157.078 59.4554C157.658 58.096 158.166 56.8094 158.602 55.5957C159.037 54.3333 159.424 53.0953 159.763 51.8815C160.15 50.6192 160.537 49.187 160.924 47.5848C158.698 48.3616 156.618 49.2355 154.683 50.2065C152.796 51.129 151.224 52.1243 149.966 53.1924C149.531 52.9011 149.071 52.4641 148.588 51.8815C148.152 51.2989 147.741 50.6678 147.354 49.988C146.967 49.2598 146.628 48.5315 146.338 47.8033C146.048 47.075 145.878 46.4196 145.83 45.837C147.281 44.8659 149.047 43.9678 151.127 43.1424C153.256 42.317 155.505 41.613 157.876 41.0304C160.246 40.3993 162.665 39.9138 165.133 39.5739C167.6 39.2341 169.898 39.0641 172.026 39.0641C177.832 39.0641 182.331 40.2779 185.523 42.7054C188.716 45.0844 190.313 48.3616 190.313 52.537ZM172.607 46.4196C172.268 46.8565 171.736 47.7304 171.01 49.0413C170.285 50.3522 169.438 51.9301 168.471 53.775C167.551 55.5714 166.56 57.5377 165.495 59.6739C164.479 61.8101 163.488 63.9221 162.52 66.0098C166.148 66.0098 169.486 65.6699 172.534 64.9902C175.582 64.3105 178.219 63.3638 180.444 62.15C182.669 60.8877 184.387 59.4312 185.596 57.7804C186.854 56.0812 187.483 54.212 187.483 52.1728C187.483 49.7453 186.612 47.9004 184.87 46.638C183.129 45.3272 180.444 44.6717 176.816 44.6717C175.993 44.6717 175.171 44.7203 174.348 44.8174C173.526 44.8659 172.655 44.9388 171.736 45.0359L172.607 46.4196Z" fill="url(#paint6_linear_2_270)"/>
<path d="M213.782 62.5141C213.588 65.5243 213.056 68.1217 212.185 70.3065C211.314 72.4427 210.057 74.3362 208.412 75.987C206.815 77.5891 204.856 79.0457 202.534 80.3565C200.212 81.6674 197.503 82.9297 194.407 84.1435C194.407 84.4348 194.382 84.7504 194.334 85.0902C194.334 85.3815 194.334 85.6971 194.334 86.037C194.334 86.6681 194.382 87.3235 194.479 88.0033C194.576 88.683 194.745 89.3141 194.987 89.8967C195.229 90.4793 195.568 90.9649 196.003 91.3533C196.438 91.6931 196.995 91.863 197.672 91.863C198.978 91.863 200.26 91.5717 201.518 90.9891C202.776 90.4065 203.961 89.7025 205.074 88.8772C206.235 88.0033 207.299 87.0808 208.267 86.1098C209.282 85.0902 210.177 84.1678 210.951 83.3424C211.435 83.7793 211.846 84.192 212.185 84.5804C210.008 87.4935 207.613 89.921 205.001 91.863C202.437 93.7565 199.994 94.9703 197.672 95.5043C194.334 95.1159 191.722 93.9022 189.835 91.863C187.997 89.7754 187.077 87.275 187.077 84.362C187.077 82.3714 187.343 80.3565 187.876 78.3174C188.456 76.2297 189.23 74.2391 190.198 72.3456C191.214 70.4036 192.375 68.583 193.681 66.8837C195.035 65.1844 196.463 63.7036 197.962 62.4413C199.51 61.179 201.083 60.1837 202.679 59.4554C204.324 58.7272 205.944 58.363 207.541 58.363C209.766 58.6543 211.846 60.038 213.782 62.5141ZM208.775 64.9174C207.468 65.1116 206.114 65.6457 204.711 66.5196C203.308 67.3935 201.978 68.5587 200.72 70.0152C199.51 71.4717 198.398 73.171 197.382 75.113C196.366 77.0551 195.568 79.1428 194.987 81.3761C198.857 79.4341 202.074 77.0551 204.638 74.2391C207.202 71.3746 208.581 68.2674 208.775 64.9174Z" fill="url(#paint7_linear_2_270)"/>
<path d="M223.817 93.1739C226.043 91.6688 228.219 89.7511 230.348 87.4207C232.477 85.0417 234.412 82.4928 236.153 79.7739C237.895 77.0065 239.37 74.142 240.58 71.1804C241.789 68.2188 242.612 65.3786 243.047 62.6598C243.047 62.0772 242.733 61.6888 242.104 61.4946C241.426 61.4946 240.483 62.1014 239.274 63.3152C238.113 64.4804 236.806 65.9855 235.355 67.8304C233.952 69.6754 232.501 71.7388 231.001 74.0206C229.55 76.3025 228.219 78.5844 227.01 80.8663C225.801 83.0996 224.761 85.2116 223.89 87.2022C223.067 89.1442 222.608 90.7221 222.511 91.9359C222.027 91.9359 221.616 91.4504 221.277 90.4794C221.181 90.2366 221.011 89.9938 220.769 89.7511C220.528 89.4598 220.141 89.1199 219.608 88.7315C219.366 88.5373 219.125 88.3188 218.883 88.0761C218.641 87.7848 218.471 87.542 218.375 87.3478C218.181 86.9594 218.084 86.3283 218.084 85.4543C218.084 82.5899 218.447 79.3612 219.173 75.7685C219.899 72.1757 220.842 68.5101 222.003 64.7717C223.212 61.0333 224.615 57.3678 226.212 53.775C227.808 50.1337 229.453 46.808 231.146 43.7978C232.888 40.7877 234.629 38.2388 236.371 36.1511C238.113 34.0634 239.757 32.6797 241.305 32C241.789 32.1457 242.37 32.3884 243.047 32.7283C243.724 33.0681 244.402 33.4565 245.079 33.8935C245.756 34.3304 246.385 34.7674 246.966 35.2043C247.595 35.6413 248.054 36.0297 248.344 36.3696C243.023 40.6906 238.403 46.2496 234.484 53.0467C230.614 59.7953 227.445 67.7819 224.978 77.0065C226.333 74.4819 227.857 72.0543 229.55 69.7239C231.243 67.3449 232.912 65.2572 234.557 63.4609C236.25 61.6645 237.847 60.2322 239.346 59.1641C240.894 58.096 242.176 57.562 243.192 57.562C243.966 57.7562 244.716 58.096 245.442 58.5815C246.167 59.067 246.82 59.6739 247.401 60.4022C247.982 61.0819 248.465 61.8344 248.852 62.6598C249.239 63.4366 249.481 64.262 249.578 65.1359C249.53 67.175 249.167 69.3598 248.49 71.6902C247.861 73.9721 246.99 76.2297 245.877 78.463C244.813 80.6964 243.579 82.8326 242.176 84.8717C240.822 86.9109 239.37 88.7072 237.822 90.2609C236.323 91.7659 234.799 92.9797 233.251 93.9022C231.751 94.8246 230.324 95.2859 228.969 95.2859C228.389 95.2859 227.784 95.213 227.155 95.0674C226.575 94.9703 226.018 94.8004 225.486 94.5576C225.002 94.3634 224.591 94.1449 224.253 93.9022C223.962 93.6594 223.817 93.4167 223.817 93.1739Z" fill="url(#paint8_linear_2_270)"/>
<path d="M251.296 88.0033C251.296 85.867 251.804 82.8812 252.82 79.0457C253.836 75.1616 255.263 70.6464 257.102 65.5C260.101 57.2949 262.907 50.4735 265.519 45.0359C268.18 39.5496 270.768 35.2772 273.284 32.2185C273.864 32.3156 274.566 32.5583 275.388 32.9467C276.259 33.3351 277.105 33.7721 277.928 34.2576C278.75 34.6946 279.476 35.1558 280.105 35.6413C280.782 36.1268 281.218 36.5152 281.411 36.8065C277.638 41.2732 274.324 46.0797 271.47 51.2261C268.615 56.3725 266.003 62.2714 263.632 68.9228C261.601 74.6518 260.053 79.8225 258.988 84.4348C257.924 88.9985 257.392 92.8098 257.392 95.8685C257.392 96.6938 257.392 97.2036 257.392 97.3978C257.392 97.592 257.416 97.7862 257.464 97.9804C256.787 97.8833 256.207 97.7134 255.723 97.4706C255.239 97.2279 254.925 96.9366 254.779 96.5967C254.683 96.354 254.417 95.9899 253.981 95.5043C253.546 95.0674 253.159 94.7275 252.82 94.4848C252.385 94.1935 252.022 93.4409 251.732 92.2272C251.441 90.9649 251.296 89.5569 251.296 88.0033Z" fill="url(#paint9_linear_2_270)"/>
<path d="M288.256 91.062C287.337 90.2851 286.708 89.3141 286.369 88.1489C286.079 86.9837 285.934 85.9884 285.934 85.163C285.934 84.1435 286.055 83.2696 286.297 82.5413C286.103 82.5413 285.668 82.9297 284.991 83.7065C284.313 84.4833 283.563 85.4058 282.741 86.4739C281.967 87.542 281.193 88.5859 280.419 89.6054C279.645 90.625 279.064 91.3775 278.677 91.863C278.048 92.5428 277.444 93.0768 276.863 93.4652C276.331 93.8536 275.896 94.0721 275.557 94.1207C274.783 94.0721 273.961 93.9022 273.09 93.6109C272.267 93.3681 271.469 93.004 270.695 92.5185C269.969 92.033 269.316 91.4504 268.736 90.7706C268.204 90.0909 267.841 89.3141 267.647 88.4402C267.647 87.0808 267.672 85.9641 267.72 85.0902C267.817 84.2163 267.986 83.2696 268.228 82.25C268.663 80.4051 269.292 78.3174 270.115 75.987C270.985 73.6565 271.977 71.3746 273.09 69.1413C274.202 66.8594 275.436 64.7475 276.791 62.8054C278.194 60.8149 279.669 59.2612 281.217 58.1446C281.653 58.1446 282.161 58.1931 282.741 58.2902C283.322 58.3388 283.902 58.4601 284.483 58.6544C285.112 58.8486 285.692 59.0913 286.224 59.3826C286.805 59.6254 287.288 59.9652 287.676 60.4022C287.24 60.8877 286.127 62.5141 284.337 65.2815C282.596 68.0489 280.637 72.0301 278.46 77.225C278.218 77.7591 277.928 78.5359 277.589 79.5554C277.25 80.575 276.912 81.6431 276.573 82.7598C276.234 83.8764 275.944 84.9688 275.702 86.037C275.509 87.1051 275.412 87.9547 275.412 88.5859C275.412 88.9743 275.46 89.2656 275.557 89.4598C275.702 89.654 275.823 89.7996 275.92 89.8967C276.646 89.6054 277.565 88.8044 278.677 87.4935C279.79 86.1826 281.338 84.1678 283.322 81.4489C283.805 80.7692 284.362 79.9924 284.991 79.1185C285.668 78.2446 286.345 77.3221 287.022 76.3511C287.7 75.3315 288.329 74.2877 288.909 73.2196C289.538 72.1515 290.046 71.0833 290.433 70.0152C290.627 69.4326 290.868 68.7529 291.159 67.9761C291.497 67.1507 291.884 66.3011 292.32 65.4272C292.803 64.5533 293.336 63.6793 293.916 62.8054C294.545 61.883 295.271 61.0333 296.093 60.2565C296.722 60.2565 297.399 60.3293 298.125 60.475C298.851 60.6207 299.528 60.8149 300.157 61.0576C300.834 61.2518 301.415 61.4946 301.898 61.7859C302.382 62.0286 302.745 62.2957 302.987 62.587C302.116 64.7232 301.149 66.8351 300.084 68.9228C299.02 71.0105 298.028 73.0739 297.109 75.113C296.19 77.1036 295.416 79.0942 294.787 81.0848C294.158 83.0754 293.844 85.0174 293.844 86.9109C293.844 87.9304 293.916 88.8286 294.061 89.6054C294.255 90.3337 294.448 90.9649 294.642 91.4989C294.835 91.9844 295.005 92.3971 295.15 92.737C295.343 93.0768 295.44 93.3681 295.44 93.6109C295.44 93.6594 295.392 93.7322 295.295 93.8293C295.247 93.8779 295.198 93.9022 295.15 93.9022C294.811 93.9022 294.376 93.8293 293.844 93.6837C293.311 93.538 292.707 93.3196 292.029 93.0283C291.401 92.7855 290.747 92.4942 290.07 92.1543C289.441 91.8145 288.837 91.4504 288.256 91.062Z" fill="url(#paint10_linear_2_270)"/>
<path d="M330 62.5141C329.806 65.5243 329.274 68.1217 328.404 70.3065C327.533 72.4427 326.275 74.3362 324.63 75.987C323.034 77.5891 321.074 79.0457 318.752 80.3565C316.43 81.6674 313.721 82.9297 310.625 84.1435C310.625 84.4348 310.601 84.7504 310.552 85.0902C310.552 85.3815 310.552 85.6971 310.552 86.037C310.552 86.6681 310.601 87.3235 310.698 88.0033C310.794 88.683 310.964 89.3141 311.205 89.8967C311.447 90.4793 311.786 90.9649 312.221 91.3533C312.657 91.6931 313.213 91.863 313.89 91.863C315.197 91.863 316.479 91.5717 317.736 90.9891C318.994 90.4065 320.179 89.7025 321.292 88.8772C322.453 88.0033 323.517 87.0808 324.485 86.1098C325.501 85.0902 326.396 84.1678 327.17 83.3424C327.654 83.7793 328.065 84.192 328.404 84.5804C326.227 87.4935 323.832 89.921 321.22 91.863C318.656 93.7565 316.213 94.9703 313.89 95.5043C310.552 95.1159 307.94 93.9022 306.053 91.863C304.215 89.7754 303.296 87.275 303.296 84.362C303.296 82.3714 303.562 80.3565 304.094 78.3174C304.675 76.2297 305.449 74.2391 306.416 72.3456C307.432 70.4036 308.593 68.583 309.899 66.8837C311.254 65.1844 312.681 63.7036 314.181 62.4413C315.729 61.179 317.301 60.1837 318.897 59.4554C320.542 58.7272 322.163 58.363 323.759 58.363C325.985 58.6543 328.065 60.038 330 62.5141ZM324.993 64.9174C323.687 65.1116 322.332 65.6457 320.929 66.5196C319.526 67.3935 318.196 68.5587 316.938 70.0152C315.729 71.4717 314.616 73.171 313.6 75.113C312.584 77.0551 311.786 79.1428 311.205 81.3761C315.076 79.4341 318.293 77.0551 320.857 74.2391C323.421 71.3746 324.799 68.2674 324.993 64.9174Z" fill="url(#paint11_linear_2_270)"/>
<defs>
<linearGradient id="paint0_linear_2_270" x1="65.7831" y1="14" x2="65.7831" y2="117.432" gradientUnits="userSpaceOnUse">
<stop stop-color="#119BFF"/>
<stop offset="1" stop-color="#5DC7DE"/>
</linearGradient>
<linearGradient id="paint1_linear_2_270" x1="65.7831" y1="14" x2="65.7831" y2="117.432" gradientUnits="userSpaceOnUse">
<stop stop-color="#119BFF"/>
<stop offset="1" stop-color="#5DC7DE"/>
</linearGradient>
<linearGradient id="paint2_linear_2_270" x1="65.7831" y1="14" x2="65.7831" y2="117.432" gradientUnits="userSpaceOnUse">
<stop stop-color="#119BFF"/>
<stop offset="1" stop-color="#5DC7DE"/>
</linearGradient>
<linearGradient id="paint3_linear_2_270" x1="65.7831" y1="14" x2="65.7831" y2="117.432" gradientUnits="userSpaceOnUse">
<stop stop-color="#119BFF"/>
<stop offset="1" stop-color="#5DC7DE"/>
</linearGradient>
<linearGradient id="paint4_linear_2_270" x1="65.7831" y1="14" x2="65.7831" y2="117.432" gradientUnits="userSpaceOnUse">
<stop stop-color="#119BFF"/>
<stop offset="1" stop-color="#5DC7DE"/>
</linearGradient>
<linearGradient id="paint5_linear_2_270" x1="65.7831" y1="14" x2="65.7831" y2="117.432" gradientUnits="userSpaceOnUse">
<stop stop-color="#119BFF"/>
<stop offset="1" stop-color="#5DC7DE"/>
</linearGradient>
<linearGradient id="paint6_linear_2_270" x1="236.5" y1="32" x2="236.5" y2="99" gradientUnits="userSpaceOnUse">
<stop stop-color="#119BFF"/>
<stop offset="1" stop-color="#5DC7DE"/>
</linearGradient>
<linearGradient id="paint7_linear_2_270" x1="236.5" y1="32" x2="236.5" y2="99" gradientUnits="userSpaceOnUse">
<stop stop-color="#119BFF"/>
<stop offset="1" stop-color="#5DC7DE"/>
</linearGradient>
<linearGradient id="paint8_linear_2_270" x1="236.5" y1="32" x2="236.5" y2="99" gradientUnits="userSpaceOnUse">
<stop stop-color="#119BFF"/>
<stop offset="1" stop-color="#5DC7DE"/>
</linearGradient>
<linearGradient id="paint9_linear_2_270" x1="236.5" y1="32" x2="236.5" y2="99" gradientUnits="userSpaceOnUse">
<stop stop-color="#119BFF"/>
<stop offset="1" stop-color="#5DC7DE"/>
</linearGradient>
<linearGradient id="paint10_linear_2_270" x1="236.5" y1="32" x2="236.5" y2="99" gradientUnits="userSpaceOnUse">
<stop stop-color="#119BFF"/>
<stop offset="1" stop-color="#5DC7DE"/>
</linearGradient>
<linearGradient id="paint11_linear_2_270" x1="236.5" y1="32" x2="236.5" y2="99" gradientUnits="userSpaceOnUse">
<stop stop-color="#119BFF"/>
<stop offset="1" stop-color="#5DC7DE"/>
</linearGradient>
</defs>
</svg>
