<svg width="159" height="53" viewBox="0 0 159 53" fill="none" xmlns="http://www.w3.org/2000/svg">
<path d="M44.3672 9.11445C39.8784 8.74506 43.158 12.9748 44.3672 19.2344C45.4947 25.0704 42.0239 32.2856 42.5091 34.2079C42.5698 34.4482 46.6682 27.0445 48.2804 20.7736C49.2767 16.8987 48.3658 9.4435 44.3672 9.11445Z" fill="white"/>
<path d="M34.1091 41.5677C30.2909 37.2533 24.2204 36.4775 24.1818 34.2079C24.1253 30.8921 31.5038 33.5921 35.3818 36.492C40.4727 40.2988 41.1419 51.574 39.7091 49.9427C38.4319 48.4886 37.0223 44.8595 34.1091 41.5677Z" fill="white"/>
<path d="M13.6787 6.97035C9.01559 10.2788 9.25447 17.2753 6.97933 17.36C3.65551 17.4836 5.96624 8.97205 8.91412 5.13533C12.3789 0.625903 24.3602 -0.929548 22.7535 0.531818C21.3213 1.83442 17.2662 4.42501 13.6787 6.97035Z" fill="white"/>
<path d="M10.2534 37.1629C12.7901 38.4081 16.0323 37.8628 17.2637 37.5843C17.4707 37.5375 17.6473 37.7426 17.5561 37.9337C17.137 38.8117 16.1214 40.6579 14.7188 41.3351C12.2751 42.5148 9.14304 41.7097 9.14304 41.7097C9.14304 41.7097 6.17773 40.8199 3.99952 38.3362C3.12162 37.3352 2.40884 35.7372 3.29346 34.595C4.72212 32.7504 7.05625 35.5935 10.2534 37.1629Z" fill="white"/>
<path d="M11.8816 21.8118C9.59066 14.452 13.9179 4.04667 27.4088 4.80803C39.8816 6.33076 43.2332 16.0632 42.1725 26.6338C41.7385 30.9585 40.2568 34.6196 37.9992 37.7908C37.5639 37.2024 37.0974 36.684 36.5993 36.2571C35.0765 34.9517 32.942 33.7219 30.7535 32.8059C34.2047 25.1707 33.5488 16.2268 23.3361 18.5126C22.7448 18.6449 22.7846 19.9726 22.8322 21.5558C22.8731 22.9209 22.9198 24.476 22.5725 25.6186C20.9778 30.8655 17.7361 35.2626 10.6088 33.9936C5.31492 30.6156 7.59593 27.7645 8.51238 26.9014C8.65068 26.7712 8.86844 26.8548 8.9203 27.0373C9.15617 27.8674 9.90484 29.5928 11.8816 28.4103C13.927 27.1867 13.1798 25.258 12.4099 23.2705C12.2216 22.7846 12.0321 22.2953 11.8816 21.8118Z" fill="white"/>
<path d="M27.372 38.2137C20.8116 45.837 5.70237 50.4959 0.193656 51.992C-0.0969577 52.0709 -0.0471537 52.5058 0.253979 52.4993C5.62526 52.3836 19.8514 51.6723 26.8998 47.4444C29.3673 45.9643 31.6395 44.3619 33.6382 42.5871C31.9166 40.7851 29.5581 39.4132 27.372 38.2137Z" fill="white"/>
<path d="M87.7229 19.5604C87.7229 20.7433 87.452 21.8646 86.9102 22.9242C86.393 23.9592 85.6664 24.8957 84.7305 25.7335C83.7947 26.5468 82.6987 27.2368 81.4427 27.8036C80.1866 28.3704 78.8197 28.7523 77.342 28.9495C77.7115 30.0584 78.1548 31.2043 78.672 32.3872C79.2138 33.5454 79.7926 34.6667 80.4083 35.751C81.024 36.8353 81.6643 37.8333 82.3293 38.7451C82.9942 39.6569 83.6469 40.4085 84.2872 41C84.1641 41.2464 83.9794 41.4928 83.7331 41.7393C83.5114 41.9857 83.2405 42.2075 82.9204 42.4046C82.6248 42.6264 82.3046 42.7989 81.9599 42.9221C81.6397 43.07 81.3318 43.1439 81.0363 43.1439C80.4945 43.1439 79.9773 42.8852 79.4847 42.3677C78.9921 41.8502 78.4873 41.0369 77.9701 39.928C77.4775 38.7944 76.948 37.3405 76.3815 35.5662C75.8397 33.7672 75.2363 31.6109 74.5714 29.0973C74.3004 29.0973 74.0295 29.0973 73.7586 29.0973C73.4877 29.0973 73.2784 29.0727 73.1306 29.0234C72.9582 28.9248 72.7735 28.7523 72.5765 28.5059C71.9115 29.9352 71.3204 31.2783 70.8032 32.5351C70.286 33.7919 69.8181 35.0117 69.3994 36.1946C69.0053 37.3528 68.6482 38.4864 68.3281 39.5953C68.0325 40.6796 67.7739 41.7886 67.5523 42.9221C66.7149 42.725 65.9884 42.3677 65.3727 41.8502C64.757 41.3327 64.1782 40.6057 63.6364 39.6693C63.7349 39.4475 63.8334 39.238 63.9319 39.0409C64.055 38.8191 64.2028 38.5233 64.3752 38.1537C64.5476 37.7594 64.757 37.2665 65.0032 36.6751C65.2742 36.0837 65.6189 35.2951 66.0376 34.3094C66.4809 33.3236 66.9981 32.1161 67.5892 30.6868C68.2049 29.2575 68.9438 27.5202 69.8058 25.4748C70.1998 24.563 70.5323 23.7621 70.8032 23.0721C71.0988 22.3821 71.3574 21.729 71.579 21.1129C71.8007 20.4722 71.9977 19.8438 72.1701 19.2277C72.3671 18.587 72.5641 17.86 72.7612 17.0468C71.6283 17.4411 70.5692 17.8847 69.5841 18.3776C68.6236 18.8458 67.8232 19.351 67.1828 19.8931C66.9612 19.7452 66.7272 19.5235 66.4809 19.2277C66.2593 18.932 66.0499 18.6117 65.8529 18.2667C65.6559 17.897 65.4835 17.5274 65.3357 17.1577C65.188 16.7881 65.1018 16.4554 65.0771 16.1597C65.816 15.6668 66.7149 15.2109 67.7739 14.792C68.8576 14.373 70.0028 14.0157 71.2096 13.72C72.4164 13.3996 73.6478 13.1532 74.9038 12.9807C76.1599 12.8082 77.3297 12.7219 78.4134 12.7219C81.3688 12.7219 83.6592 13.338 85.2847 14.5702C86.9102 15.7777 87.7229 17.4411 87.7229 19.5604ZM78.7089 16.4554C78.5365 16.6772 78.2656 17.1208 77.8962 17.7861C77.5268 18.4515 77.0958 19.2524 76.6032 20.1888C76.1352 21.1006 75.6304 22.0987 75.0885 23.183C74.5714 24.2673 74.0665 25.3392 73.5739 26.3989C75.421 26.3989 77.1204 26.2264 78.672 25.8814C80.2236 25.5364 81.5658 25.0559 82.6987 24.4398C83.8316 23.799 84.7059 23.0598 85.3216 22.2219C85.962 21.3594 86.2821 20.4106 86.2821 19.3756C86.2821 18.1434 85.8388 17.207 84.9522 16.5663C84.0656 15.9009 82.6987 15.5682 80.8516 15.5682C80.4329 15.5682 80.0142 15.5929 79.5955 15.6422C79.1768 15.6668 78.7335 15.7038 78.2656 15.7531L78.7089 16.4554Z" fill="white"/>
<path d="M99.6706 24.6246C99.5721 26.1525 99.3012 27.4709 98.8579 28.5798C98.4146 29.6641 97.7742 30.6252 96.9369 31.4631C96.1241 32.2763 95.1267 33.0156 93.9445 33.681C92.7624 34.3463 91.3832 34.9871 89.807 35.6031C89.807 35.751 89.7946 35.9112 89.77 36.0837C89.77 36.2315 89.77 36.3917 89.77 36.5642C89.77 36.8846 89.7947 37.2173 89.8439 37.5623C89.8932 37.9073 89.9794 38.2276 90.1025 38.5233C90.2256 38.8191 90.398 39.0655 90.6197 39.2626C90.8414 39.4351 91.1246 39.5214 91.4694 39.5214C92.1343 39.5214 92.787 39.3735 93.4273 39.0778C94.0677 38.7821 94.6711 38.4248 95.2375 38.0058C95.8286 37.5623 96.3704 37.094 96.863 36.6012C97.3802 36.0837 97.8358 35.6154 98.2299 35.1965C98.4761 35.4183 98.6855 35.6278 98.8579 35.8249C97.7496 37.3035 96.5305 38.5357 95.2006 39.5214C93.8953 40.4825 92.6515 41.0986 91.4694 41.3696C89.77 41.1725 88.4401 40.5564 87.4796 39.5214C86.5437 38.4617 86.0758 37.1926 86.0758 35.714C86.0758 34.7037 86.2112 33.681 86.4821 32.6459C86.7777 31.5863 87.1717 30.5759 87.6643 29.6148C88.1815 28.6291 88.7726 27.705 89.4375 26.8425C90.1271 25.98 90.8537 25.2284 91.6171 24.5876C92.4053 23.9469 93.2057 23.4417 94.0184 23.0721C94.8558 22.7024 95.6808 22.5176 96.4936 22.5176C97.6265 22.6655 98.6855 23.3678 99.6706 24.6246ZM97.1216 25.8444C96.4566 25.943 95.767 26.2141 95.0528 26.6577C94.3386 27.1012 93.6613 27.6927 93.021 28.432C92.4053 29.1713 91.8388 30.0338 91.3216 31.0195C90.8044 32.0052 90.398 33.0649 90.1025 34.1985C92.0728 33.2127 93.7106 32.0052 95.0159 30.5759C96.3212 29.122 97.0231 27.5448 97.1216 25.8444Z" fill="white"/>
<path d="M104.78 40.1868C105.913 39.4228 107.021 38.4494 108.104 37.2665C109.188 36.059 110.173 34.7653 111.06 33.3852C111.946 31.9806 112.698 30.5266 113.313 29.0234C113.929 27.5202 114.348 26.0785 114.569 24.6985C114.569 24.4028 114.409 24.2057 114.089 24.1071C113.744 24.1071 113.264 24.4151 112.648 25.0312C112.057 25.6226 111.392 26.3866 110.654 27.323C109.939 28.2595 109.2 29.3068 108.437 30.465C107.698 31.6233 107.021 32.7815 106.405 33.9397C105.789 35.0733 105.26 36.1453 104.817 37.1556C104.398 38.1414 104.164 38.9423 104.115 39.5584C103.868 39.5584 103.659 39.3119 103.487 38.8191C103.437 38.6959 103.351 38.5726 103.228 38.4494C103.105 38.3016 102.908 38.1291 102.637 37.9319C102.514 37.8333 102.391 37.7224 102.268 37.5992C102.144 37.4514 102.058 37.3281 102.009 37.2296C101.91 37.0324 101.861 36.7121 101.861 36.2685C101.861 34.8145 102.046 33.1758 102.415 31.3522C102.785 29.5286 103.265 27.668 103.856 25.7705C104.472 23.873 105.186 22.0124 105.999 20.1888C106.811 18.3406 107.649 16.6525 108.511 15.1247C109.397 13.5968 110.284 12.303 111.171 11.2434C112.057 10.1837 112.895 9.48137 113.683 9.13636C113.929 9.21029 114.225 9.33351 114.569 9.50601C114.914 9.67851 115.259 9.87566 115.604 10.0974C115.949 10.3192 116.269 10.541 116.564 10.7628C116.884 10.9846 117.118 11.1817 117.266 11.3542C114.557 13.5475 112.205 16.3691 110.21 19.8192C108.24 23.2446 106.627 27.2984 105.371 31.9806C106.06 30.6991 106.836 29.467 107.698 28.2841C108.56 27.0766 109.41 26.0169 110.247 25.1051C111.109 24.1933 111.922 23.4664 112.685 22.9242C113.473 22.3821 114.126 22.111 114.643 22.111C115.037 22.2096 115.419 22.3821 115.789 22.6285C116.158 22.8749 116.49 23.183 116.786 23.5526C117.082 23.8976 117.328 24.2796 117.525 24.6985C117.722 25.0928 117.845 25.5117 117.894 25.9553C117.87 26.9903 117.685 28.0993 117.34 29.2822C117.02 30.4404 116.577 31.5863 116.01 32.7199C115.468 33.8535 114.84 34.9378 114.126 35.9728C113.437 37.0078 112.698 37.9196 111.91 38.7082C111.146 39.4721 110.37 40.0882 109.582 40.5564C108.819 41.0246 108.092 41.2587 107.403 41.2587C107.107 41.2587 106.799 41.2218 106.479 41.1478C106.183 41.0986 105.9 41.0123 105.629 40.8891C105.383 40.7905 105.174 40.6796 105.001 40.5564C104.854 40.4332 104.78 40.31 104.78 40.1868Z" fill="white"/>
<path d="M118.769 37.5623C118.769 36.478 119.028 34.9624 119.545 33.0156C120.062 31.0441 120.789 28.7523 121.724 26.1402C123.251 21.9755 124.68 18.5131 126.01 15.7531C127.364 12.9684 128.682 10.7998 129.963 9.24726C130.258 9.29654 130.615 9.41976 131.034 9.61691C131.477 9.81405 131.908 10.0358 132.327 10.2823C132.746 10.5041 133.115 10.7382 133.435 10.9846C133.78 11.231 134.002 11.4282 134.1 11.576C132.179 13.8432 130.492 16.2829 129.039 18.8951C127.586 21.5072 126.256 24.5014 125.049 27.8775C124.015 30.7854 123.227 33.4099 122.685 35.751C122.143 38.0674 121.872 40.0019 121.872 41.5545C121.872 41.9734 121.872 42.2321 121.872 42.3307C121.872 42.4293 121.885 42.5279 121.909 42.6264C121.564 42.5771 121.269 42.4909 121.023 42.3677C120.776 42.2445 120.616 42.0966 120.542 41.9241C120.493 41.8009 120.358 41.6161 120.136 41.3696C119.914 41.1478 119.717 40.9753 119.545 40.8521C119.323 40.7043 119.138 40.3223 118.991 39.7062C118.843 39.0655 118.769 38.3508 118.769 37.5623Z" fill="white"/>
<path d="M137.585 39.1148C137.117 38.7205 136.797 38.2276 136.624 37.6362C136.477 37.0448 136.403 36.5396 136.403 36.1206C136.403 35.6031 136.464 35.1596 136.587 34.7899C136.489 34.7899 136.267 34.987 135.922 35.3813C135.578 35.7756 135.196 36.2439 134.777 36.786C134.383 37.3282 133.989 37.858 133.595 38.3755C133.201 38.893 132.906 39.275 132.708 39.5214C132.388 39.8664 132.08 40.1375 131.785 40.3346C131.514 40.5318 131.292 40.6427 131.12 40.6673C130.726 40.6427 130.307 40.5564 129.864 40.4085C129.445 40.2853 129.039 40.1005 128.645 39.8541C128.275 39.6076 127.943 39.3119 127.647 38.9669C127.376 38.6219 127.192 38.2276 127.093 37.784C127.093 37.094 127.106 36.5272 127.13 36.0837C127.179 35.6401 127.266 35.1595 127.389 34.642C127.61 33.7056 127.931 32.6459 128.349 31.4631C128.793 30.2802 129.297 29.122 129.864 27.9884C130.43 26.8302 131.058 25.7582 131.748 24.7725C132.462 23.7621 133.213 22.9735 134.001 22.4067C134.223 22.4067 134.482 22.4314 134.777 22.4806C135.073 22.5053 135.368 22.5669 135.664 22.6655C135.984 22.764 136.28 22.8873 136.551 23.0351C136.846 23.1583 137.092 23.3308 137.289 23.5526C137.068 23.799 136.501 24.6246 135.59 26.0293C134.703 27.4339 133.706 29.4547 132.598 32.0915C132.475 32.3626 132.327 32.7568 132.154 33.2743C131.982 33.7919 131.81 34.334 131.637 34.9008C131.465 35.4676 131.317 36.0221 131.194 36.5642C131.095 37.1064 131.046 37.5376 131.046 37.858C131.046 38.0551 131.071 38.203 131.12 38.3016C131.194 38.4001 131.255 38.4741 131.305 38.5233C131.674 38.3755 132.142 37.9689 132.708 37.3035C133.275 36.6381 134.063 35.6154 135.073 34.2354C135.319 33.8904 135.602 33.4961 135.922 33.0526C136.267 32.609 136.612 32.1408 136.957 31.6479C137.302 31.1304 137.622 30.6006 137.917 30.0584C138.238 29.5163 138.496 28.9741 138.693 28.432C138.792 28.1363 138.915 27.7912 139.063 27.397C139.235 26.978 139.432 26.5468 139.654 26.1032C139.9 25.6596 140.171 25.216 140.466 24.7725C140.787 24.3042 141.156 23.873 141.575 23.4787C141.895 23.4787 142.24 23.5157 142.609 23.5896C142.979 23.6635 143.323 23.7621 143.643 23.8853C143.988 23.9839 144.284 24.1071 144.53 24.2549C144.776 24.3782 144.961 24.5137 145.084 24.6616C144.641 25.7459 144.148 26.8178 143.607 27.8775C143.065 28.9372 142.56 29.9845 142.092 31.0195C141.624 32.0299 141.23 33.0402 140.91 34.0506C140.59 35.061 140.429 36.0467 140.429 37.0078C140.429 37.5253 140.466 37.9812 140.54 38.3755C140.639 38.7451 140.737 39.0655 140.836 39.3366C140.934 39.583 141.021 39.7925 141.094 39.965C141.193 40.1375 141.242 40.2853 141.242 40.4085C141.242 40.4332 141.218 40.4702 141.168 40.5194C141.144 40.5441 141.119 40.5564 141.094 40.5564C140.922 40.5564 140.7 40.5194 140.429 40.4455C140.159 40.3716 139.851 40.2607 139.506 40.1128C139.186 39.9896 138.853 39.8418 138.508 39.6693C138.188 39.4967 137.88 39.3119 137.585 39.1148Z" fill="white"/>
<path d="M158.836 24.6246C158.738 26.1525 158.467 27.4709 158.024 28.5798C157.58 29.6641 156.94 30.6252 156.103 31.4631C155.29 32.2763 154.292 33.0156 153.11 33.681C151.928 34.3463 150.549 34.9871 148.973 35.6031C148.973 35.751 148.96 35.9112 148.936 36.0837C148.936 36.2315 148.936 36.3917 148.936 36.5642C148.936 36.8846 148.96 37.2173 149.01 37.5623C149.059 37.9073 149.145 38.2276 149.268 38.5233C149.391 38.8191 149.564 39.0655 149.785 39.2626C150.007 39.4351 150.29 39.5214 150.635 39.5214C151.3 39.5214 151.953 39.3735 152.593 39.0778C153.233 38.7821 153.837 38.4248 154.403 38.0058C154.994 37.5623 155.536 37.094 156.029 36.6012C156.546 36.0837 157.002 35.6154 157.396 35.1965C157.642 35.4183 157.851 35.6278 158.024 35.8249C156.915 37.3035 155.696 38.5357 154.366 39.5214C153.061 40.4825 151.817 41.0986 150.635 41.3696C148.936 41.1725 147.606 40.5564 146.645 39.5214C145.709 38.4617 145.242 37.1926 145.242 35.714C145.242 34.7037 145.377 33.681 145.648 32.6459C145.943 31.5863 146.337 30.5759 146.83 29.6148C147.347 28.6291 147.938 27.705 148.603 26.8425C149.293 25.98 150.019 25.2284 150.783 24.5876C151.571 23.9469 152.371 23.4417 153.184 23.0721C154.022 22.7024 154.847 22.5176 155.659 22.5176C156.792 22.6655 157.851 23.3678 158.836 24.6246ZM156.287 25.8444C155.622 25.943 154.933 26.2141 154.219 26.6577C153.504 27.1012 152.827 27.6927 152.187 28.432C151.571 29.1713 151.005 30.0338 150.487 31.0195C149.97 32.0052 149.564 33.0649 149.268 34.1985C151.239 33.2127 152.876 32.0052 154.182 30.5759C155.487 29.122 156.189 27.5448 156.287 25.8444Z" fill="white"/>
</svg>
