<svg width="132" height="132" viewBox="0 0 132 132" fill="none" xmlns="http://www.w3.org/2000/svg">
<path d="M105.15 31.9568C96.3326 31.2291 102.775 39.5623 105.15 51.8946C107.365 63.3925 100.547 77.6075 101.5 81.3946C101.619 81.8682 109.67 67.2817 112.837 54.9271C114.793 47.293 113.004 32.6051 105.15 31.9568Z" fill="url(#paint0_linear_2_271)"/>
<path d="M85 95.8946C77.5 87.3946 65.5759 85.8661 65.5 81.3946C65.3891 74.8621 79.8825 80.1815 87.5 85.8946C97.5 93.3946 98.8144 115.609 96 112.395C93.4913 109.53 90.7224 102.38 85 95.8946Z" fill="url(#paint1_linear_2_271)"/>
<path d="M44.8689 27.7326C35.7092 34.2508 36.1784 48.035 31.7094 48.2017C25.1805 48.4453 29.7194 31.6763 35.5099 24.1174C42.3156 15.2331 65.8504 12.1687 62.6943 15.0478C59.8811 17.6141 51.9158 22.7179 44.8689 27.7326Z" fill="url(#paint2_linear_2_271)"/>
<path d="M38.1406 87.2165C43.1233 89.6697 49.4921 88.5954 51.9108 88.0468C52.3174 87.9545 52.6644 88.3585 52.4852 88.735C51.662 90.4649 49.6671 94.1022 46.9119 95.4363C42.1118 97.7605 35.9595 96.1744 35.9595 96.1744C35.9595 96.1744 30.1348 94.4212 25.8562 89.528C24.1318 87.5559 22.7316 84.4076 24.4693 82.1574C27.2756 78.5232 31.8605 84.1245 38.1406 87.2165Z" fill="url(#paint3_linear_2_271)"/>
<path d="M41.3388 56.9725C36.8388 42.4725 45.3388 21.9725 71.8388 23.4725C96.3388 26.4725 102.922 45.647 100.839 66.4725C99.9864 74.9928 97.0758 82.2058 92.6413 88.4534C91.7863 87.2944 90.8699 86.273 89.8915 85.4318C86.9002 82.86 82.7074 80.4372 78.4087 78.6324C85.1879 63.59 83.8994 45.9691 63.8388 50.4725C62.6773 50.7333 62.7556 53.349 62.8489 56.4681C62.9293 59.1575 63.021 62.2213 62.3388 64.4725C59.2064 74.8097 52.8388 83.4725 38.8388 80.9725C28.44 74.3173 32.9206 68.7002 34.7207 66.9998C34.9924 66.7432 35.4202 66.908 35.522 67.2675C35.9853 68.9029 37.4559 72.3023 41.3388 69.9725C45.3566 67.5618 43.8889 63.762 42.3765 59.8463C42.0068 58.8891 41.6344 57.925 41.3388 56.9725Z" fill="url(#paint4_linear_2_271)"/>
<path d="M71.7665 89.2867C58.8799 104.306 29.2011 113.484 18.3804 116.432C17.8095 116.587 17.9074 117.444 18.4989 117.432C29.0496 117.203 56.9938 115.802 70.8388 107.473C75.6857 104.557 80.1491 101.399 84.0751 97.9029C80.6933 94.3528 76.0605 91.65 71.7665 89.2867Z" fill="url(#paint5_linear_2_271)"/>
<defs>
<linearGradient id="paint0_linear_2_271" x1="65.7831" y1="14" x2="65.7831" y2="117.432" gradientUnits="userSpaceOnUse">
<stop stop-color="#119BFF"/>
<stop offset="1" stop-color="#5DC7DE"/>
</linearGradient>
<linearGradient id="paint1_linear_2_271" x1="65.7831" y1="14" x2="65.7831" y2="117.432" gradientUnits="userSpaceOnUse">
<stop stop-color="#119BFF"/>
<stop offset="1" stop-color="#5DC7DE"/>
</linearGradient>
<linearGradient id="paint2_linear_2_271" x1="65.7831" y1="14" x2="65.7831" y2="117.432" gradientUnits="userSpaceOnUse">
<stop stop-color="#119BFF"/>
<stop offset="1" stop-color="#5DC7DE"/>
</linearGradient>
<linearGradient id="paint3_linear_2_271" x1="65.7831" y1="14" x2="65.7831" y2="117.432" gradientUnits="userSpaceOnUse">
<stop stop-color="#119BFF"/>
<stop offset="1" stop-color="#5DC7DE"/>
</linearGradient>
<linearGradient id="paint4_linear_2_271" x1="65.7831" y1="14" x2="65.7831" y2="117.432" gradientUnits="userSpaceOnUse">
<stop stop-color="#119BFF"/>
<stop offset="1" stop-color="#5DC7DE"/>
</linearGradient>
<linearGradient id="paint5_linear_2_271" x1="65.7831" y1="14" x2="65.7831" y2="117.432" gradientUnits="userSpaceOnUse">
<stop stop-color="#119BFF"/>
<stop offset="1" stop-color="#5DC7DE"/>
</linearGradient>
</defs>
</svg>
